<?xml version="1.0" encoding="iso-8859-1"?>
<!-- Uploaded to: SVG Repo, www.svgrepo.com, Generator: SVG Repo Mixer Tools -->
<!DOCTYPE svg PUBLIC "-//W3C//DTD SVG 1.1//EN" "http://www.w3.org/Graphics/SVG/1.1/DTD/svg11.dtd">
<svg fill="#000000" version="1.1" id="Capa_1" xmlns="http://www.w3.org/2000/svg" xmlns:xlink="http://www.w3.org/1999/xlink" 
	 width="800px" height="800px" viewBox="0 0 53 53" xml:space="preserve">
<g>
	<path d="M38.5,0h-24c-2.761,0-5,2.239-5,5v43c0,2.761,2.239,5,5,5h24c2.762,0,5-2.239,5-5V5C43.5,2.239,41.262,0,38.5,0z M39.5,38
		c0,3.309-2.691,6-6,6h-3.93c-0.489,1.45-1.844,2.5-3.459,2.5c-1.615,0-2.97-1.05-3.46-2.5H19.5c-3.309,0-6-2.691-6-6V11
		c0-3.309,2.691-6,6-6h14c3.309,0,6,2.691,6,6V38z M33.5,42h-3.826c-0.378-1.622-1.826-2.834-3.563-2.834
		c-1.738,0-3.185,1.212-3.563,2.834H19.5c-2.206,0-4-1.794-4-4V11c0-2.206,1.794-4,4-4h14c2.206,0,4,1.794,4,4v27
		C37.5,40.206,35.706,42,33.5,42z"/>
</g>
</svg>